<svg id="Capa_1" enable-background="new 0 0 512 512" height="512" viewBox="0 0 512 512" width="512" xmlns="http://www.w3.org/2000/svg"><g><g><path clip-rule="evenodd" d="m426.819 392.201c-12.018-61.651-84.24-81.408-136.195-94.73-4.337-1.105-6.916-3.061-6.916-7.795.595 8.73-105.045 8.078-105.612 0 0 4.734-2.579 6.689-6.916 7.795-51.955 13.322-124.177 33.079-136.195 94.73l-15.901 81.379c-1.729 8.9 1.729 11.338 11.139 11.338h72.222 256.914 72.222c9.41 0 12.868-2.438 11.139-11.338z" fill="#b3e59f" fill-rule="evenodd"/></g><g><path clip-rule="evenodd" d="m230.902 342.484c29.053 0 52.806-23.753 52.806-52.807v-38.748c-8.107 5.641-16.808 10.318-25.822 13.662-9.779 3.628-18.367 5.414-26.984 5.414s-17.205-1.786-26.984-5.414c-9.014-3.345-17.715-8.022-25.822-13.662v38.748c0 29.053 23.753 52.807 52.806 52.807z" fill="#ffdfcf" fill-rule="evenodd"/></g><g><path clip-rule="evenodd" d="m368.798 92.479c0-40.222-32.936-73.159-73.157-73.159h-15.816c7.398 34.978 18.112 77.581 54.081 116.13 3.26 9.893 20.975 2.863 34.892 2.693z" fill="#e0dfe1" fill-rule="evenodd"/></g><g><path clip-rule="evenodd" d="m372.001 158.892v-10.772c0-3.685-1.19-7.143-3.203-9.978-3.09-4.394-8.163-7.285-13.86-7.285h-16.27c-13.945 17.064-10.856 36.962-1.956 56.01-.057 1.787 35.289-.934 35.289-27.975z" fill="#ffcebf" fill-rule="evenodd"/></g><g><path clip-rule="evenodd" d="m181.979 19.32h-15.816c-40.221 0-73.157 32.937-73.157 73.159v45.664c10.601-5.811 37.925 10.601 46.712-10.8 24.659-29.762 13.52-67.858 42.261-108.023z" fill="#e0dfe1" fill-rule="evenodd"/></g><g><path clip-rule="evenodd" d="m123.136 130.858h-16.27c-5.697 0-10.771 2.891-13.86 7.285-2.012 2.863-3.203 6.321-3.203 9.978v10.771c0 18.254 16.61 28.147 35.289 28.317v-.34c12.953-16.838 23.753-45.126-1.956-56.011z" fill="#ffcebf" fill-rule="evenodd"/></g><g><path clip-rule="evenodd" d="m257.886 274.597c38.464-14.286 70.89-52.609 78.826-87.729 1.247-5.386 1.871-10.715 1.871-15.873v-37.699-18.113c0-41.639-23.951-77.978-58.758-95.864-14.711-7.568-31.349-11.819-48.923-11.819s-34.212 4.252-48.923 11.82c-34.807 17.914-58.758 54.224-58.758 95.864v55.812c0 5.159.624 10.488 1.871 15.873 7.965 35.12 40.363 73.443 78.826 87.729 9.779 3.6 18.367 5.414 26.984 5.414s17.205-1.815 26.984-5.415z" fill="#ffeee6" fill-rule="evenodd"/></g><g><path clip-rule="evenodd" d="m283.708 260.934c26.502-18.424 46.91-47.195 53.004-74.066 1.247-5.386 1.871-10.715 1.871-15.873 0-18.594 0-37.217 0-55.812 0-41.639-23.951-77.978-58.758-95.864-10.402-5.357-21.797-9.07-33.787-10.771 4.025 1.502 7.936 3.231 11.706 5.187 3.316 1.701 6.519 3.572 9.637 5.584 5.471 3.572 10.573 7.625 15.306 12.075 19.416 18.368 32.058 43.822 33.645 72.11.113 2.012.17 4.025.17 6.066v53.63 2.183c0 1.332-.028 2.693-.113 4.025-.255 3.883-.85 7.852-1.757 11.877-7.936 35.12-40.363 73.443-78.854 87.7-9.75 3.628-18.339 5.442-26.956 5.442-2.041 0-4.11-.113-6.151-.312.425.17.85.312 1.247.482 9.779 3.6 18.367 5.414 26.984 5.414s17.205-1.814 26.984-5.414c9.013-3.345 17.715-8.022 25.822-13.663z" fill="#ffdfcf" fill-rule="evenodd"/></g><g><path clip-rule="evenodd" d="m283.708 289.677v-28.742c-8.107 5.641-16.808 10.318-25.822 13.662-9.779 3.6-18.367 5.414-26.984 5.414s-17.205-1.814-26.984-5.414c-9.014-3.345-17.715-8.022-25.822-13.662v28.742c21.117 13.067 55.527 19.445 80.612 8.419 9.694-4.28 8.929-2.835 8.929 8.56v9.949c0 4.223-.482 8.333-1.446 12.273 11.309-10.204 17.347-24.008 17.517-39.201z" fill="#ffcebf" fill-rule="evenodd"/></g><g><path clip-rule="evenodd" d="m481.637 356.826c-25.623-48.215-84.892-67.008-133.474-42.858-.794.397-1.616.822-2.409 1.247-49.008 26.021-67.658 86.85-41.61 135.887 7.313 13.776 17.375 25.171 29.166 33.816 30.13 22.138 71.456 26.503 106.689 7.795 49.008-26.02 67.658-86.849 41.638-135.887z" fill="#f9f7f8" fill-rule="evenodd"/></g><g><path clip-rule="evenodd" d="m448.021 396.028c0-5.981-4.904-10.885-10.884-10.885h-2.041-23.413v-25.426c0-6.009-4.904-10.885-10.884-10.885h-15.845c-5.981 0-10.884 4.875-10.884 10.885v25.426h-25.453c-5.981 0-10.884 4.904-10.884 10.885v15.873c0 5.981 4.904 10.885 10.884 10.885h10.743 14.711v25.426c0 6.009 4.904 10.885 10.884 10.885h15.845c5.981 0 10.884-4.875 10.884-10.885v-25.426h25.453c1.956 0 3.798-.539 5.385-1.446 3.288-1.871 5.499-5.414 5.499-9.439z" fill="#f37c7c" fill-rule="evenodd"/></g><g><path clip-rule="evenodd" d="m481.637 356.826c-20.918-39.343-64.285-59.128-105.923-51.9 31.236 4.025 60.119 22.62 76.02 52.552 19.388 36.509 14.002 79.537-10.232 109.895-5.187 6.491-11.224 12.415-18.084 17.546-4.138 3.118-8.588 5.952-13.294 8.447-9.637 5.13-19.756 8.504-29.96 10.289 19.898 2.551 40.759-.822 59.835-10.941 49.008-26.021 67.658-86.85 41.638-135.888z" fill="#f0f0f0" fill-rule="evenodd"/></g><g><path clip-rule="evenodd" d="m304.144 451.103c-26.049-49.037-7.398-109.866 41.61-135.887.425-.227.879-.454 1.304-.68-16.241-6.236-41.468-13.209-56.434-17.064-4.28-1.077-6.859-3.033-6.916-7.682v.028.028c0 6.888-1.389 13.521-3.827 19.558-2.948 7.313-7.54 13.918-13.69 19.473 3.656.935 13.124 4.167 19.529 6.208 1.247.397 4.507.794-.454 9.978-10.119 18.708-29.138 66.271.028 121.204 3.543 6.633 7.54 12.869 11.99 18.651h36.026c-11.791-8.645-21.853-20.04-29.166-33.815z" fill="#95d6a4" fill-rule="evenodd"/></g><g><path clip-rule="evenodd" d="m209.672 159.969c0-13.691-11.111-24.802-24.83-24.802-13.69 0-24.801 11.111-24.801 24.802 0 13.719 11.111 24.802 24.801 24.802 13.719 0 24.83-11.083 24.83-24.802z" fill="#edf4ff" fill-rule="evenodd"/></g><g><path clip-rule="evenodd" d="m301.763 159.969c0-13.691-11.111-24.802-24.801-24.802-13.719 0-24.83 11.111-24.83 24.802 0 13.719 11.111 24.802 24.83 24.802 13.69 0 24.801-11.083 24.801-24.802z" fill="#edf4ff" fill-rule="evenodd"/></g><g><path clip-rule="evenodd" d="m209.672 159.969c0-13.691-11.111-24.802-24.83-24.802-2.523 0-4.989.368-7.285 1.077 8.843 3.798 15.051 12.585 15.051 22.818 0 11.168-7.37 20.607-17.517 23.725 3.005 1.276 6.292 1.984 9.751 1.984 13.719 0 24.83-11.083 24.83-24.802z" fill="#dbeaff" fill-rule="evenodd"/></g><g><path clip-rule="evenodd" d="m301.763 159.969c0-13.691-11.111-24.802-24.801-24.802-2.551 0-5.017.368-7.313 1.077 8.843 3.798 15.051 12.585 15.051 22.818 0 11.168-7.37 20.607-17.517 23.725 3.005 1.276 6.292 1.984 9.779 1.984 13.69 0 24.801-11.083 24.801-24.802z" fill="#dbeaff" fill-rule="evenodd"/></g><g><path d="m247.07 222.938c-4.793 4.979-10.773 7.663-16.864 7.523-5.786-.121-11.203-2.711-15.258-7.292-2.744-3.101-7.484-3.392-10.585-.646-3.102 2.745-3.391 7.484-.646 10.586 6.86 7.752 16.155 12.137 26.175 12.347.247.005.494.008.741.008 10.051 0 19.699-4.287 27.244-12.124 2.873-2.984 2.782-7.731-.202-10.604s-7.734-2.782-10.605.202z"/><path d="m384.954 466.595h15.845c10.137 0 18.384-8.247 18.384-18.384v-17.926h17.954c10.137 0 18.384-8.247 18.384-18.384v-15.874c0-10.137-8.247-18.384-18.384-18.384h-17.954v-17.926c0-10.137-8.247-18.384-18.384-18.384h-15.845c-10.137 0-18.384 8.247-18.384 18.384v17.926h-17.954c-10.137 0-18.384 8.247-18.384 18.384v15.874c0 10.137 8.247 18.384 18.384 18.384h17.954v17.926c0 10.137 8.247 18.384 18.384 18.384zm-36.338-51.309c-1.835 0-3.385-1.55-3.385-3.385v-15.874c0-1.835 1.55-3.385 3.385-3.385h25.454c4.142 0 7.5-3.358 7.5-7.5v-25.426c0-1.866 1.518-3.385 3.385-3.385h15.845c1.866 0 3.385 1.518 3.385 3.385v25.426c0 4.142 3.357 7.5 7.5 7.5h25.454c1.835 0 3.385 1.55 3.385 3.385v15.874c0 1.835-1.55 3.385-3.385 3.385h-25.454c-4.142 0-7.5 3.358-7.5 7.5v25.425c0 1.867-1.518 3.385-3.385 3.385h-15.845c-1.866 0-3.385-1.518-3.385-3.385v-25.425c0-4.142-3.357-7.5-7.5-7.5z"/><path d="m488.262 353.311c-1.94-3.658-6.481-5.05-10.14-3.109s-5.05 6.481-3.109 10.14c24.036 45.295 6.751 101.706-38.531 125.748-21.934 11.646-47.09 14.055-70.834 6.784-10.135-3.104-19.486-7.826-27.792-13.91-.16-.122-.323-.239-.492-.348-10.936-8.122-20.019-18.642-26.597-31.03-11.657-21.944-14.069-47.109-6.794-70.86 7.274-23.746 23.361-43.238 45.296-54.885 35.49-18.834 78.821-12.869 107.828 14.841 3.215 3.073 8.452 2.722 11.204-.953 2.304-3.077 1.732-7.446-1.055-10.094-32.488-30.872-80.327-38.337-120.578-19.257-19.667-7.116-55.214-16.474-55.459-16.574-.001-.031-.001-17.19-.002-25.033 24.378-17.991 43.67-44.282 51.313-70.388 22.042-2.25 36.98-16.26 36.98-35.491v-10.772c0-4.435-1.169-8.598-3.203-12.203v-43.438c0-44.546-36.112-80.658-80.658-80.658h-13.953c-15.329-7.563-32.567-11.821-50.784-11.821s-35.455 4.258-50.784 11.82h-13.955c-44.545 0-80.656 36.111-80.656 80.656v43.441c-2.034 3.605-3.203 7.767-3.203 12.203v10.771c0 19.231 14.938 33.241 36.98 35.491 7.643 26.103 26.932 52.391 51.313 70.385 0 7.841-.001 25.006-.002 25.036-.26.106-.667.248-1.277.403-18.368 4.711-37.878 9.915-56.801 17.143-3.821 1.459-6.002 5.706-4.654 9.568 1.087 3.113 3.995 5.035 7.084 5.035.892 0 1.799-.16 2.681-.498 18.094-6.931 37.038-11.999 54.91-16.587 6.751 25.923 30.358 45.116 58.364 45.116 28.007 0 51.614-19.193 58.365-45.116 13.753 3.541 27.262 7.138 40.479 11.477-19.089 13.693-33.116 33.142-40.114 55.987-8.45 27.582-5.648 56.807 7.888 82.288 4.448 8.377 9.887 16.014 16.157 22.799h-203.732v-42.754c0-4.107-3.165-7.688-7.27-7.81-4.247-.127-7.729 3.278-7.729 7.496v43.068s-66.136-.019-66.689-.05c-1.181-.066-2.042-1.16-1.818-2.321.002-.01.004-.019.006-.029l15.902-81.381c4.646-23.815 19.443-42.783 45.23-57.98 3.518-2.073 4.988-6.596 3.038-10.184-2.035-3.744-6.746-5.031-10.389-2.893-29.447 17.282-47.144 40.222-52.599 68.183l-15.905 81.387c-.454 2.336-1.836 9.447 2.522 14.732 4.045 4.907 10.664 5.536 15.979 5.536h300.631c9.17 6.416 19.39 11.425 30.401 14.797 10.449 3.2 21.128 4.785 31.754 4.785 17.418 0 34.685-4.262 50.507-12.663 52.584-27.92 72.657-93.427 44.746-146.026zm-123.761-205.191v10.771c0 11.075-8.51 17.446-18.83 19.781.269-2.581.411-5.143.411-7.677v-32.637l.06-.025 8.795.025c5.185 0 9.564 4.471 9.564 9.762zm-3.203-55.641v31.727c-2.03-.549-4.161-.847-6.361-.847h-8.855v-8.175c0-35.039-15.731-66.469-40.496-87.612 31.503 4.805 55.712 32.081 55.712 64.907zm-129.811-77.478c55.281.318 99.596 46.001 99.596 101.282v10.544l-26.209 16.917c-5.604-9.605-16.014-16.078-27.913-16.078-15.242 0-28.046 10.597-31.44 24.802h-29.239c-3.394-14.205-16.198-24.802-31.441-24.802-11.899 0-22.309 6.472-27.913 16.077l-26.208-16.916v-11.644c.001-55.437 45.259-100.501 100.767-100.182zm62.776 144.968c0 10.212-8.862 18.389-19.288 17.219-7.932-.89-14.342-7.3-15.232-15.232-1.17-10.426 7.006-19.29 17.218-19.29 8.282 0 15.215 5.852 16.902 13.636.015.088.041.175.059.263.222 1.102.341 2.239.341 3.404zm-92.202 1.986c-.89 7.932-7.301 14.343-15.233 15.233-10.426 1.17-19.288-7.007-19.288-17.219 0-1.16.119-2.293.338-3.389.02-.095.047-.189.063-.284 1.69-7.781 8.621-13.629 16.9-13.629 10.212-.001 18.39 8.862 17.22 19.288zm-104.758-3.063v-10.772c0-5.292 4.38-9.763 9.564-9.763h8.855v32.637c0 2.534.142 5.096.411 7.677-10.32-2.334-18.83-8.704-18.83-19.779zm18.419-43.709v8.175h-8.855c-2.2 0-4.331.297-6.361.847v-31.726c0-32.825 24.21-60.1 55.711-64.907-24.764 21.143-40.495 52.572-40.495 87.611zm160.486 174.494c0 24.72-19.899 44.879-44.52 45.301-25.347.434-46.093-20.751-46.093-46.103v-14.492c5.117 2.816 10.373 5.264 15.732 7.252 10.888 4.009 20.286 5.876 29.574 5.876s18.685-1.867 29.594-5.882c5.352-1.986 10.602-4.431 15.713-7.243zm-20.912-22.118c-9.178 3.379-16.93 4.952-24.394 4.952s-15.216-1.574-24.375-4.946c-40.383-14.983-75.806-60.109-75.806-96.571v-26.314l21.85 14.104c-.014.394-.03.788-.03 1.185 0 17.827 14.49 32.33 32.301 32.33 15.245 0 28.05-10.609 31.443-24.831h29.235c3.392 14.221 16.197 24.831 31.442 24.831 17.81 0 32.301-14.503 32.301-32.33 0-.397-.016-.791-.03-1.185l21.851-14.104v26.315c-.001 36.461-35.424 81.587-75.788 96.564z"/><path d="m208.589 64.982c15.223-4.228 29.405-4.227 44.625 0 .671.187 1.347.275 2.011.275 3.285 0 6.3-2.175 7.222-5.495 1.108-3.991-1.228-8.125-5.219-9.233-17.961-4.988-34.693-4.988-52.652 0-3.991 1.108-6.328 5.242-5.219 9.233 1.108 3.991 5.242 6.329 9.232 5.22z"/><path d="m182.85 94.717c32.781-9.091 63.32-9.092 96.105 0 .67.186 1.345.275 2.008.275 3.286 0 6.302-2.177 7.223-5.497 1.106-3.991-1.231-8.124-5.223-9.231-35.517-9.851-68.602-9.851-104.12 0-3.992 1.107-6.33 5.239-5.223 9.231 1.105 3.99 5.239 6.33 9.23 5.222z"/></g></g></svg>