<svg id="Capa_1" enable-background="new 0 0 512.04 512.04" height="512" viewBox="0 0 512.04 512.04" width="512" xmlns="http://www.w3.org/2000/svg"><g><g><path d="m343.971 231.047-12.911-32.715c-3.513-9.278-.427-18.952 8.852-22.457 1.474-.557 6.553-1.652 10.02-.709l27.121 52.813z" fill="#fed2a4"/><path d="m340.392 186.68 18.177 43.013 18.484-1.715-27.121-52.813c-3.467-.943-8.547.152-10.021.709-2.837 1.072-5.088 2.725-6.756 4.763 3.143.699 5.904 2.889 7.237 6.043z" fill="#ffbd86"/><path d="m405.613 236.579-32.538 73.251-4.735-87.513-19.29-49.482c-6.476-19.405 19.254-30.15 29.244-13.706z" fill="#ffe5c2"/><g><path d="m363.164 159.129 34.066 96.323 8.383-18.873-27.32-77.45c-5.184-8.533-14.599-9.732-21.56-6.213 2.452 1.312 4.684 3.339 6.431 6.213z" fill="#fed2a4"/></g><path d="m392.42 126.113c7.239 0 14.059 4.422 16.778 11.6 8.033 21.25 23.702 62.065 33.181 86.719 5.204 13.535 8.321 27.779 9.247 42.251l2.603 40.662c.229 10.134-1.298 20.229-4.521 29.844l-14.29 55.078c-2.118 8.162-3.179 16.562-3.157 24.994l.221 87.279h-110.734l-.759-66.191c.014-3.736-.326-7.464-1.015-11.136l-8.004-42.673c-2.23-14.922-.16-30.165 5.964-43.956l16.387-48.541s8.946-57.71 8.954-57.779c2.879-19.771 31.226-19.046 32.677 1.413l5.078 56.366 24.581-55.462-30.276-85.762c-4.144-11.291 4.041-24.629 17.085-24.706z" fill="#ffe5c2"/><g fill="#fed2a4"><path d="m361.123 235.675 4.94 54.829c.092 1.019.029 2.046-.187 3.047l-7.344 34.076c-.925 4.293 2.346 8.345 6.738 8.345h7.805l7.957-43.93-5.078-56.366c-.987-13.917-14.416-18.692-23.812-14.105 4.764 2.323 8.48 7.033 8.981 14.104z"/><path d="m454.228 307.344-2.603-40.662c-.926-14.472-4.043-28.715-9.247-42.251-9.479-24.654-25.148-65.469-33.18-86.719-2.719-7.178-9.538-11.6-16.778-11.6-2.701.016-5.189.607-7.407 1.625 4.16 1.894 7.607 5.36 9.355 9.975 8.033 21.25 23.702 62.065 33.181 86.719 5.204 13.535 8.321 27.779 9.247 42.25l2.603 40.662c.229 10.134-1.298 20.229-4.521 29.844l-14.29 55.078c-2.118 8.162-3.179 16.562-3.157 24.994l.194 76.683c.015 5.847-4.721 10.596-10.569 10.596h25.426l-.221-87.279c-.021-8.432 1.04-16.832 3.158-24.994l14.291-55.078c3.22-9.613 4.748-19.709 4.518-29.843z"/></g><path d="m128.032 227.978 27.121-52.813c3.467-.943 8.546.152 10.02.709 9.278 3.505 12.364 13.179 8.852 22.457l-12.911 32.715z" fill="#fed2a4"/><g><path d="m165.174 175.875c-.986-.373-3.585-.983-6.236-1.066 4.097 4.639 4.981 11.47 2.467 18.11l-13.76 36.879 13.469 1.25 12.911-32.715c3.513-9.279.427-18.953-8.851-22.458z" fill="#ffbd86"/></g><path d="m126.792 159.129c9.99-16.444 35.72-5.699 29.244 13.706l-19.29 49.482-4.735 87.513-32.538-73.251z" fill="#ffe5c2"/><path d="m133.223 152.916c6.454 3.263 10.8 10.583 7.684 19.919l-32.172 84.594 23.276 52.401 4.735-87.512 19.29-49.482c5.344-16.014-11.238-26.113-22.813-19.92z" fill="#fed2a4"/><path d="m112.665 126.113c-7.239 0-14.059 4.422-16.778 11.6-8.161 21.589-24.204 63.373-33.63 87.888-4.91 12.77-7.954 26.172-9.046 39.809l-3.355 41.934c-.229 10.134 2.298 20.229 5.521 29.844l14.704 56.67c1.843 7.105 2.767 14.417 2.748 21.757l.774 88.924h110.732l-.235-64.502c-.018-4.859.424-9.71 1.32-14.486l7.693-41.013c2.23-14.922.16-30.165-5.964-43.956l-16.387-48.541s-8.946-57.71-8.954-57.779c-2.879-19.771-31.226-19.046-32.677 1.413l-5.078 56.366-24.581-55.462 30.276-85.762c4.146-11.289-4.038-24.627-17.083-24.704z" fill="#ffe5c2"/><g fill="#fed2a4"><path d="m114.918 150.817-28.649 81.156c-1.044 2.958-.918 6.204.353 9.072l26.259 59.248c.831 1.876 1.411 3.854 1.722 5.882l3.44 22.386c.655 4.263 4.323 7.41 8.636 7.41h5.333l-7.957-43.93-24.581-55.462 30.276-85.762c4.146-11.29-4.038-24.628-17.083-24.704-2.585 0-5.112.573-7.423 1.625 8.492 3.895 12.961 14.128 9.674 23.079z"/><path d="m187.15 340.582-16.387-48.541s-8.946-57.71-8.954-57.779c-1.884-12.938-14.673-17.096-23.696-12.693 4.416 2.156 7.945 6.371 8.866 12.693.007.059 6.621 42.729 8.476 54.693.317 2.045.951 4.027 1.88 5.877l14.985 45.75c6.125 13.792 8.194 29.034 5.964 43.956l-6.492 38.634c-.419 2.493-1.022 4.948-1.627 7.403-.607 2.463-.911 4.995-.901 7.539l.204 55.816c.021 5.852-4.717 10.608-10.569 10.608h25.438l-.235-64.502c-.018-4.859.424-9.709 1.32-14.486l7.693-41.013c2.229-14.921.16-30.163-5.965-43.955z"/></g><path d="m362.419 38.216c-10.553-24.163-37.749-36.34-62.802-28.119l-37.735 12.382c-3.485 1.144-7.245 1.144-10.731 0l-37.735-12.382c-25.053-8.221-52.249 3.956-62.802 28.119-8.692 19.902-4.279 43.098 11.113 58.418l82.65 82.26c6.714 6.682 17.565 6.682 24.279 0l82.65-82.26c15.392-15.32 19.805-38.516 11.113-58.418z" fill="#eb5569"/><path d="m362.419 38.216c-7.136-16.34-21.886-27.186-38.434-29.963 7.838 5.263 14.301 12.735 18.331 21.963 8.692 19.902 4.279 43.098-11.113 58.417l-82.65 82.26c-2.231 2.22-5.645 3.306-9.779 2.424l5.602 5.576c6.714 6.682 17.565 6.682 24.279 0l82.65-82.26c15.393-15.319 19.806-38.515 11.114-58.417z" fill="#e53950"/><path d="m290.48 74.417h-19.717v-19.717h-28.495v19.717h-19.717v28.495h19.717v19.718h28.495v-19.718h19.717z" fill="#d9def7"/><g fill="#bec6ed"><path d="m255.959 58.903v15.514h14.804v-19.717h-19.007c2.322 0 4.203 1.882 4.203 4.203z"/><path d="m271.473 74.417c2.321 0 4.203 1.882 4.203 4.203v20.09c0 2.321-1.882 4.203-4.203 4.203h19.007v-28.496z"/><path d="m255.959 118.427c0 2.321-1.882 4.203-4.203 4.203h19.007v-19.717h-14.804z"/></g></g><g><path d="m289.404 147.661-26.039 25.917c-3.775 3.759-9.922 3.758-13.697 0l-82.649-82.26c-13.301-13.238-17.042-32.903-9.531-50.1 9.055-20.734 32.091-31.049 53.591-23.995l37.735 12.383c5.039 1.653 10.367 1.654 15.406 0l37.736-12.382c21.492-7.055 44.534 3.262 53.59 23.995 7.511 17.196 3.77 36.862-9.531 50.1l-31.301 31.154c-2.936 2.922-2.946 7.671-.024 10.607 2.919 2.934 7.668 2.946 10.606.025l31.301-31.154c17.717-17.633 22.7-43.829 12.695-66.736-12.168-27.86-43.13-41.723-72.013-32.243l-37.735 12.382c-1.98.649-4.074.649-6.055 0l-37.735-12.383c-28.887-9.479-59.847 4.382-72.014 32.243-10.005 22.907-5.021 49.102 12.695 66.735l82.649 82.26c4.806 4.783 11.118 7.174 17.431 7.174s12.625-2.392 17.431-7.174l26.039-25.917c2.936-2.922 2.946-7.671.024-10.606-2.919-2.935-7.668-2.947-10.605-.025z"/><path d="m242.269 130.13h28.494c4.143 0 7.5-3.358 7.5-7.5v-12.217h12.218c4.143 0 7.5-3.358 7.5-7.5v-28.496c0-4.142-3.357-7.5-7.5-7.5h-12.218v-12.217c0-4.142-3.357-7.5-7.5-7.5h-28.494c-4.143 0-7.5 3.358-7.5 7.5v12.217h-12.218c-4.143 0-7.5 3.358-7.5 7.5v28.495c0 4.142 3.357 7.5 7.5 7.5h12.218v12.217c0 4.143 3.357 7.501 7.5 7.501zm-12.218-34.718v-13.495h12.218c4.143 0 7.5-3.358 7.5-7.5v-12.217h13.494v12.217c0 4.142 3.357 7.5 7.5 7.5h12.218v13.495h-12.218c-4.143 0-7.5 3.358-7.5 7.5v12.217h-13.494v-12.217c0-4.142-3.357-7.5-7.5-7.5z"/><path d="m466.345 470.161-20.343-13.501 20.343-13.5c3.451-2.291 4.392-6.945 2.102-10.396-2.29-3.452-6.944-4.392-10.396-2.102l-27.874 18.499h-101.727l.039-10.786c.016-4.198-.369-8.418-1.144-12.546l-7.978-42.533c-1.989-13.485-.116-27.199 5.421-39.67.094-.21 16.64-49.185 16.64-49.185.137-.407 9.102-57.994 9.267-59.098h.003c.887-6.09 5.333-8.12 9.208-7.964 3.848.142 8.119 2.535 8.565 8.827.004.047.008.095.012.142l4.987 55.356-7.776 42.93c-.738 4.076 1.968 7.979 6.043 8.717 3.978.752 7.997-1.943 8.717-6.043l7.797-43.048 24.217-54.642c.776-1.75.853-3.73.216-5.536l-30.308-85.851c-1.194-3.254-.659-6.998 1.434-10.015 1.185-1.708 3.884-4.576 8.609-4.604 4.31 0 8.233 2.715 9.762 6.752 8.155 21.573 24.299 63.617 33.196 86.759 4.936 12.839 7.884 26.31 8.763 40.039l2.593 40.503c.191 9.247-1.2 18.376-4.138 27.139-.055.165-14.454 55.637-14.454 55.637-2.267 8.739-3.41 17.745-3.397 26.768l.003 2.446c.005 4.139 3.362 7.491 7.5 7.491 4.146 0 7.505-3.364 7.5-7.509l-.003-2.448c-.011-7.747.971-15.479 2.917-22.981l14.241-54.889c3.448-10.382 5.071-21.196 4.824-32.144-.002-.104-.007-.207-.014-.31l-2.604-40.662c-.975-15.246-4.249-30.205-9.731-44.463-8.891-23.127-25.022-65.141-33.167-86.684-3.725-9.835-13.286-16.444-23.835-16.444-8.438.05-16.052 4.079-20.891 11.055-2.937 4.233-4.526 9.137-4.712 14.06-4.421-.438-8.856.347-12.674 2.116-8.941 4.144-13.915 12.679-13.511 22.107-1.498.31-2.684.663-3.327.907-6.45 2.437-11.281 7.219-13.604 13.467-2.133 5.741-1.995 12.368.387 18.661.013.033.025.065.038.098l12.062 30.564c-.102.5-8.169 52.368-9.135 58.605l-16.072 47.607c-6.604 15.034-8.812 31.55-6.385 47.785.014.091.029.183.047.274l8.004 42.673c.6 3.2.897 6.472.886 9.727l.759 66.191c-.094 4.039 3.461 7.607 7.5 7.527h110.732c4.041.08 7.598-3.493 7.5-7.533l-.149-33.937 18.218 12.091c3.405 2.272 8.092 1.376 10.396-2.102 2.293-3.448 1.352-8.103-2.099-10.394zm-105.938-310.708c3.212-1.489 7.948-1.533 11.074 2.971l26.067 73.841-11.645 26.273-2.475-27.474c-.542-7.353-3.852-13.536-8.926-17.584l-18.392-47.177c-2.297-7.151 2.701-10.109 4.297-10.85zm-22.688 28.098c1.068-2.91 3.737-4.794 7.029-5.102l11.742 30.12c-3.801.449-7.286 1.738-10.278 3.726l-8.154-20.661c-1.083-2.887-1.203-5.755-.339-8.083zm-8.443 309.487-.88-32.878h96.408l.144 32.878z"/><path d="m178.075 290.254c-.967-6.237-9.033-58.104-9.135-58.605l12.062-30.564c5.688-13.819-1.43-30.236-16.506-33.133.405-9.429-4.569-17.964-13.511-22.108-3.819-1.77-8.257-2.554-12.682-2.115-.182-4.937-1.771-9.834-4.704-14.062-4.839-6.976-12.453-11.005-20.891-11.055-.015 0-.029 0-.044 0-10.505 0-20.066 6.608-23.793 16.448-7.735 20.462-22.549 59.066-33.614 87.848-5.17 13.444-8.373 27.542-9.522 41.903 0 0-3.374 42.22-3.377 42.363-.215 9.508 1.583 19.432 5.824 32.146l14.639 56.421c1.682 6.479 2.525 13.159 2.509 19.854l.774 88.924c-.09 4.035 3.464 7.599 7.5 7.519h110.732c4.039.08 7.594-3.489 7.5-7.527l-.235-64.502c-.016-4.379.385-8.778 1.191-13.075l7.692-41.013c.018-.091.033-.183.047-.274 2.427-16.235.219-32.751-6.385-47.785zm-10.709-102.703c.864 2.328.744 5.197-.339 8.083l-8.152 20.656c-2.992-1.988-6.476-3.276-10.279-3.723l11.742-30.118c.873.115 1.695.278 2.184.444 2.403.905 4.032 2.473 4.844 4.658zm-22.688-28.098c1.597.74 6.595 3.699 4.296 10.849l-18.392 47.177c-5.073 4.048-8.383 10.231-8.926 17.584l-2.475 27.474-11.645-26.273 26.066-73.839c3.126-4.506 7.863-4.46 11.076-2.972zm41.039 223.842-7.666 40.872c-.98 5.225-1.469 10.573-1.449 15.896l.208 56.975h-95.686l-.794-81.405c.021-7.978-.985-15.938-2.989-23.659l-14.703-56.67c-.044-.168-.094-.335-.148-.5-3.693-11.017-5.281-19.382-5.139-27.083l3.338-41.712c1.033-12.926 3.917-25.616 8.569-37.716 11.073-28.799 25.897-67.432 33.644-87.923 1.528-4.034 5.441-6.747 9.742-6.756 4.755.037 7.448 2.899 8.631 4.604 2.093 3.017 2.628 6.76 1.401 10.104l-30.275 85.762c-.637 1.805-.561 3.786.216 5.536l24.217 54.642 7.797 43.048c.656 3.624 3.814 6.165 7.371 6.165 4.617.044 8.262-4.292 7.389-8.838l-7.776-42.93 4.987-55.356c.004-.047.008-.095.012-.142.446-6.292 4.718-8.685 8.565-8.827 3.919-.141 8.322 1.875 9.208 7.964h.003c.165 1.104 1.24 8.039 8.962 57.848.065.425 16.851 50.225 16.944 50.435 5.537 12.467 7.41 26.181 5.421 39.666z"/><path d="m236.413 228.651h-6.333v-6.333c0-4.142-3.357-7.5-7.5-7.5s-7.5 3.358-7.5 7.5v6.333h-6.333c-4.143 0-7.5 3.358-7.5 7.5s3.357 7.5 7.5 7.5h6.333v6.333c0 4.142 3.357 7.5 7.5 7.5s7.5-3.358 7.5-7.5v-6.333h6.333c4.143 0 7.5-3.358 7.5-7.5s-3.357-7.5-7.5-7.5z"/><path d="m110.151 77.559c4.104 0 7.431-3.327 7.431-7.432s-3.327-7.431-7.431-7.431-7.431 3.327-7.431 7.431 3.327 7.432 7.431 7.432z"/><circle cx="394.931" cy="89.183" r="7.431"/></g></g></svg>