<?xml version="1.0" encoding="iso-8859-1"?>
<!-- Generator: Adobe Illustrator 19.0.0, SVG Export Plug-In . SVG Version: 6.00 Build 0)  -->
<svg version="1.1" id="Capa_1" xmlns="http://www.w3.org/2000/svg" xmlns:xlink="http://www.w3.org/1999/xlink" x="0px" y="0px"
	 viewBox="0 0 512 512" style="enable-background:new 0 0 512 512;" xml:space="preserve">
<path style="fill:#E6E6E6;" d="M214.963,50.678L214.963,50.678c-12.339-5.291-25.617-8.013-39.04-8.013l0,0
	c-54.741,0-99.123,44.373-99.123,99.123l0,0c0,46.754,13.141,92.57,37.922,132.215l4.745,7.595l22.093,161.988
	c2.014,14.746,14.609,25.745,29.491,25.745l0,0c14.549,0,26.965-10.522,29.363-24.875l25.779-154.675
	c2.432-14.575,15.036-25.25,29.807-25.25l0,0c14.771,0,27.375,10.675,29.807,25.25l25.779,154.675
	c2.398,14.353,14.814,24.875,29.363,24.875l0,0c14.882,0,27.477-10.999,29.491-25.745l22.093-161.988l4.745-7.595
	c24.781-39.646,37.922-85.461,37.922-132.215l0,0c0-54.75-44.382-99.123-99.123-99.123l0,0l0,0c-13.423,0-26.701,2.731-39.04,8.013
	l0,0C270.831,61.908,241.169,61.908,214.963,50.678z"/>
<path style="fill:#DEDEDE;" d="M384,55.039c-54.383,129.417-175.846,204.322-262.289,243.046l19.849,145.502
	c2.176,16.29,17.143,27.742,33.434,25.566c12.996-1.732,23.33-11.767,25.446-24.713l25.779-154.675
	c2.739-16.461,18.304-27.588,34.765-24.849c12.74,2.116,22.733,12.109,24.849,24.849l25.779,154.675
	c2.645,16.222,17.937,27.23,34.167,24.593c12.945-2.108,22.98-12.442,24.713-25.446l22.042-161.988l4.745-7.595
	c24.781-39.646,37.922-85.461,37.922-132.215l0,0C435.2,105.701,415.59,72.472,384,55.039z"/>
<rect x="339.289" y="401.055" transform="matrix(-0.7071 0.7071 -0.7071 -0.7071 930.6255 433.6981)" style="fill:#A2DAEB;" width="72.405" height="17.067"/>
<polygon style="fill:#4398D1;" points="503.467,255.999 384,375.465 409.6,401.065 503.467,307.199 "/>
<ellipse style="fill:#A2DAEB;" cx="307.2" cy="460.799" rx="59.733" ry="42.667"/>
<g>
	<path style="fill:#F7F7F7;" d="M128,153.599h-17.067c0-46.037,32.427-64.674,49.493-68.096l3.345,16.725l-1.638-8.363l1.707,8.354
		C162.389,102.535,128,110.326,128,153.599z"/>
	<rect x="179.2" y="85.332" style="fill:#F7F7F7;" width="17.067" height="17.067"/>
</g>
<g>
	
		<rect x="52.663" y="108.4" transform="matrix(-0.7071 0.7071 -0.7071 -0.7071 224.8213 171.9487)" style="fill:#A2DAEB;" width="48.273" height="48.273"/>
	<path style="fill:#A2DAEB;" d="M159.906,264.532c-19.209-0.017-34.756-15.607-34.739-34.807c0.009-5.393,1.263-10.709,3.686-15.539
		l5.862-11.725l-46.848-46.848l12.066-12.066l46.848,46.848c5.197,5.197,6.485,13.133,3.2,19.703l-5.897,11.767
		c-4.361,8.755-0.802,19.388,7.945,23.748c4.514,2.253,9.779,2.466,14.464,0.597l26.598-10.692l6.349,15.846l-26.615,10.641
		C168.721,263.661,164.335,264.523,159.906,264.532z"/>
</g>
<polygon style="fill:#4398D1;" points="8.533,8.532 85.333,89.88 34.133,141.08 8.533,119.465 "/>
<path d="M28.629,147.625c3.388,2.859,8.405,2.645,11.537-0.486l2.5-2.526l28.1,28.1c3.337,3.328,8.738,3.328,12.066,0l11.034-11.034
	l40.815,40.815l-5.828,11.691c-8.576,17.169-1.613,38.033,15.556,46.618c8.883,4.437,19.234,4.864,28.45,1.169l26.615-10.641
	l-6.383-15.812l-26.598,10.65c-9.088,3.61-19.379-0.836-22.989-9.924c-1.852-4.659-1.638-9.89,0.58-14.379l5.862-11.725
	c3.285-6.571,1.997-14.507-3.2-19.703l-40.815-40.815l11.034-11.034c3.328-3.337,3.328-8.738,0-12.066l-28.1-28.1l2.5-2.5
	c3.268-3.268,3.345-8.542,0.171-11.895l-76.8-81.348c-3.234-3.43-8.636-3.584-12.066-0.341C0.973,3.941,0,6.185,0,8.532v110.933
	c0,2.517,1.109,4.898,3.029,6.519L28.629,147.625z M98.867,132.572L76.8,154.614l-22.067-22.067L76.8,110.48L98.867,132.572z
	 M17.067,30.002l56.371,59.733l-2.671,2.671l-34.133,34.133l-2.987,2.987l-16.58-14.02V30.002z"/>
<path d="M506.735,248.114c-3.191-1.323-6.861-0.589-9.301,1.852L377.967,369.432c-3.328,3.328-3.328,8.738,0,12.066l6.767,6.767
	l-33.485,33.485c-13.244-8.124-28.518-12.339-44.049-12.151c-37.641,0-68.267,22.963-68.267,51.2s30.626,51.2,68.267,51.2
	s68.267-22.963,68.267-51.2c-0.171-10.377-4.139-20.326-11.162-27.972l32.495-32.495l6.767,6.767c3.328,3.328,8.738,3.328,12.066,0
	l93.867-93.867c1.604-1.604,2.5-3.772,2.5-6.033v-51.2C512,252.543,509.926,249.436,506.735,248.114z M307.2,494.932
	c-27.75,0-51.2-15.633-51.2-34.133c0-18.5,23.45-34.133,51.2-34.133s51.2,15.633,51.2,34.133
	C358.4,479.299,334.95,494.932,307.2,494.932z M494.933,303.666L409.6,388.999l-13.534-13.534l98.867-98.867V303.666z"/>
<path d="M256,273.065c10.615-0.034,19.678,7.654,21.393,18.125l17.126,102.75l16.828-2.816l-17.126-102.75
	c-3.524-21.111-23.492-35.362-44.604-31.838c-16.324,2.722-29.116,15.514-31.838,31.838L192,443.049
	c-1.929,11.571-12.877,19.388-24.448,17.451c-9.173-1.527-16.282-8.849-17.545-18.065l-22.084-161.988
	c-0.154-1.212-0.572-2.372-1.22-3.413l-4.745-7.595c-14.455-23.1-24.866-48.495-30.805-75.093l-16.666,3.721
	c6.366,28.501,17.536,55.706,33.033,80.461l3.772,6.042l21.845,160.171c2.85,20.958,22.153,35.635,43.11,32.785
	c16.631-2.261,29.85-15.095,32.614-31.659l25.779-154.675C236.356,280.728,245.402,273.048,256,273.065z"/>
<path d="M175.923,51.199c12.271-0.017,24.405,2.475,35.678,7.322c28.365,12.1,60.433,12.1,88.798,0
	c45.986-19.703,99.243,1.604,118.946,47.59c4.83,11.273,7.322,23.407,7.322,35.678c0.017,45.158-12.681,89.412-36.625,127.693
	l-4.745,7.595c-0.649,1.041-1.067,2.202-1.22,3.413l-6.98,51.2l16.905,2.304l6.741-49.382l3.772-6.042
	c25.651-41.011,39.245-88.414,39.219-136.781c0-59.46-48.205-107.657-107.657-107.657c-14.575,0-29.005,2.961-42.402,8.704
	c-24.073,10.257-51.277,10.257-75.349,0c-42.283-18.125-91.401-7.381-122.257,26.743l12.663,11.486
	C125.909,62.07,150.315,51.224,175.923,51.199z"/>
<g>
</g>
<g>
</g>
<g>
</g>
<g>
</g>
<g>
</g>
<g>
</g>
<g>
</g>
<g>
</g>
<g>
</g>
<g>
</g>
<g>
</g>
<g>
</g>
<g>
</g>
<g>
</g>
<g>
</g>
</svg>
