<svg xmlns="http://www.w3.org/2000/svg" xmlns:xlink="http://www.w3.org/1999/xlink" xmlns:fi="http://pattern.flaticon.com/" x="0" y="0" width="700" height="350" viewBox="0 0 700 350"><rect x="0px" y="0px" width="100%" height="100%" opacity="1" fill="#1e88e5"/><defs><path d="M165,0C74.019,0,0,74.019,0,165s74.019,165,165,165c90.982,0,165-74.019,165-165S255.982,0,165,0z" transform="matrix(0.019755159078990323 0.019755159078990323 -0.019755159078990323 0.019755159078990323 49.00000014901161 78.9807976529448)" id="L1_29" fill="#ddebe9"/><path d="M165,0C74.019,0,0,74.019,0,165s74.019,165,165,165c90.982,0,165-74.019,165-165S255.982,0,165,0z" transform="matrix(0.022726973259665086 0.016233552312109163 -0.016233552312109163 0.022726973259665086 149.42858569266488 273.07151342966887)" id="L1_30" fill="#ddebe9"/><g transform="matrix(1.7422549724578857 0 0 1.7422549724578857 194.2010752896224 38.09294033050537)" id="L1_36"><g><path d="m14.5 24h-11c-1.378 0-2.5-1.122-2.5-2.5v-19c0-1.378 1.122-2.5 2.5-2.5h11c1.378 0 2.5 1.122 2.5 2.5v3c0 .276-.224.5-.5.5s-.5-.224-.5-.5v-3c0-.827-.673-1.5-1.5-1.5h-11c-.827 0-1.5.673-1.5 1.5v19c0 .827.673 1.5 1.5 1.5h11c.827 0 1.5-.673 1.5-1.5v-4c0-.276.224-.5.5-.5s.5.224.5.5v4c0 1.378-1.122 2.5-2.5 2.5z" fill="#ddebe9"/><path d="m11 3h-4c-.827 0-1.5-.673-1.5-1.5 0-.276-.224-.5-.5-.5h-1c-.276 0-.5-.224-.5-.5s.224-.5.5-.5h1c.827 0 1.5.673 1.5 1.5 0 .276.224.5.5.5h4c.276 0 .5-.224.5-.5 0-.827.673-1.5 1.5-1.5h1c.276 0 .5.224.5.5s-.224.5-.5.5h-1c-.276 0-.5.224-.5.5 0 .827-.673 1.5-1.5 1.5z" fill="#ddebe9"/></g><path d="m13.5 16c-.189 0-.362-.106-.447-.276l-1.862-3.724h-2.691c-.276 0-.5-.224-.5-.5s.224-.5.5-.5h3c.189 0 .362.107.447.276l1.518 3.036 2.575-6.009c.077-.179.25-.297.445-.303.205.002.375.102.462.276l2.862 5.724h2.691c.276 0 .5.224.5.5s-.224.5-.5.5h-3c-.189 0-.362-.107-.447-.276l-2.518-5.036-2.575 6.009c-.077.179-.25.297-.445.303-.005 0-.01 0-.015 0z" fill="#ddebe9"/></g><g transform="matrix(0.08069499998403368 0.016695517276586178 -0.016695517276586178 0.08069499998403368 81.51245115381731 141.14355077927536)" id="L1_37"><path d="m471.188 79.622-126.402-66.831c-18.099-9.569-38.844-11.518-58.407-5.486-19.565 6.032-35.61 19.321-45.18 37.421s-11.519 38.843-5.487 58.408 19.321 35.61 37.421 45.18l126.403 66.831c1.424.753 2.861 1.456 4.31 2.111 10.139 4.582 20.826 6.768 31.388 6.767 25.796 0 50.824-13.045 65.166-36.075.956-1.535 1.865-3.115 2.723-4.738 19.754-37.364 5.428-83.833-31.935-103.588zm-191.038 55.419c-14.555-7.695-25.241-20.597-30.092-36.33-4.85-15.733-3.283-32.413 4.412-46.967 7.695-14.554 20.598-25.241 36.331-30.091 5.998-1.849 12.131-2.766 18.234-2.766 9.906 0 19.727 2.415 28.732 7.177l56.565 29.907-57.617 108.977zm209.7 41.151c-15.886 30.045-53.253 41.563-83.297 25.68l-56.565-29.907 57.617-108.976 56.564 29.906c30.045 15.885 41.566 53.252 25.681 83.297z" fill="#ddebe9"/><path d="m180.05 166.432c-4.102-.17-7.641 3.045-7.813 7.188-.173 4.142 3.045 7.64 7.187 7.813 15.276.637 29.7 6.895 40.614 17.622 11.742 11.54 18.287 26.961 18.43 43.425.143 16.463-6.133 31.996-17.674 43.738l-44.849 45.634-87.918-86.406 44.849-45.635c4.803-4.887 10.313-8.903 16.376-11.937 3.708-1.855 5.21-6.365 3.354-10.072-1.854-3.708-6.364-5.208-10.072-3.355-7.548 3.776-14.4 8.769-20.367 14.84l-100.222 101.978c-21.292 21.665-27.063 52.879-17.432 79.723 3.769 10.504 9.896 20.339 18.373 28.671.902.887 1.823 1.749 2.761 2.586 17.343 15.473 41.345 22.7 64.217 18.261 15.725-3.052 30.134-10.306 41.417-21.787l100.221-101.977c14.352-14.602 22.157-33.919 21.98-54.392-.178-20.473-8.317-39.651-22.92-54.002-13.574-13.341-31.513-21.124-50.512-21.916zm-59.478 221.762c-11.451 11.652-27.168 18.289-43.424 18.43-16.43.111-31.996-6.134-43.738-17.674-24.239-23.822-24.578-62.923-.755-87.163l44.848-45.634 87.918 86.406c0 .001-44.841 45.627-44.849 45.635z" fill="#ddebe9"/><path d="m288.694 339.597c-20.344 20.344-30.783 48.481-28.641 77.196.308 4.133 3.893 7.234 8.044 6.927 4.135-.308 7.236-3.91 6.928-8.044-1.817-24.352 7.035-48.212 24.286-65.463 32.639-32.639 85.749-32.639 118.388 0 32.64 32.64 32.64 85.749 0 118.389-15.811 15.811-36.833 24.519-59.194 24.519-22.36 0-43.382-8.708-59.193-24.519-6.527-6.527-11.884-13.992-15.923-22.187-1.833-3.719-6.333-5.247-10.052-3.415-3.719 1.833-5.248 6.333-3.415 10.052 4.766 9.671 11.082 18.475 18.773 26.166 18.647 18.647 43.44 28.916 69.81 28.916s51.164-10.269 69.812-28.916c38.493-38.493 38.493-101.127 0-139.621-38.497-38.493-101.129-38.493-139.623 0z" fill="#ddebe9"/><path d="m391.237 449.646c1.921 0 3.842-.733 5.309-2.199 2.931-2.931 2.931-7.685 0-10.616l-65.465-65.465c-2.932-2.931-7.685-2.931-10.617 0-2.931 2.931-2.931 7.685 0 10.616l65.465 65.465c1.466 1.466 3.388 2.199 5.308 2.199z" fill="#ddebe9"/></g><g transform="matrix(0.0718160942196846 0 0 0.0718160942196846 226.61507987976074 191.61489719302074)" id="L1_38"><path d="M512,83.99c0-16.542-13.458-30-30-30h-83.5c-5.523,0-10,4.477-10,10c0,5.523,4.477,10,10,10H482c5.514,0,10,4.486,10,10    v60.063H20V83.99c0-5.514,4.486-10,10-10h124.584c5.523,0,10-4.477,10-10c0-5.523-4.477-10-10-10H30c-16.542,0-30,13.458-30,30    v70.063c0,0.132,0.015,0.259,0.02,0.39c-0.005,0.13-0.02,0.258-0.02,0.39v34.937c0,17.058,8.862,32.076,22.215,40.722    c-0.14,0.666-0.215,1.355-0.215,2.062v259.438H10c-5.523,0-10,4.477-10,10s4.477,10,10,10h492c5.523,0,10-4.477,10-10    s-4.477-10-10-10h-12v-259.44c0-0.707-0.076-1.396-0.215-2.062C503.138,221.844,512,206.826,512,189.768v-34.937    c0-0.132-0.015-0.259-0.02-0.39c0.005-0.13,0.02-0.258,0.02-0.39V83.99z M347.999,164.052L347.999,164.052H410v25.716    c0,15.71-12.781,28.491-28.491,28.491h-5.019c-15.71,0-28.491-12.781-28.491-28.491V164.052z M265.999,164.052L265.999,164.052    H328v25.716c0,15.71-12.781,28.491-28.491,28.491h-5.019c-15.71,0-28.491-12.781-28.491-28.491V164.052z M183.999,164.052    L183.999,164.052H246v25.716c0,15.71-12.781,28.491-28.491,28.491h-5.019c-15.71,0-28.491-12.781-28.491-28.491V164.052z     M101.999,164.052L101.999,164.052H164v25.716c0,15.71-12.781,28.491-28.491,28.491h-5.019c-15.71,0-28.491-12.781-28.491-28.491    V164.052z M20,189.768v-25.716h62v25.716c0,15.71-12.781,28.491-28.491,28.491H48.49C32.781,218.259,20,205.478,20,189.768z     M232,491.99H96v-196h136V491.99z M470,419.99H312v-124h158V419.99z M470.006,275.99H470H302c-5.523,0-10,4.477-10,10v144    c0,5.523,4.477,10,10,10h168v52H252v-206c0-5.523-4.477-10-10-10H86c-5.523,0-10,4.477-10,10v206H42V237.812    c2.125,0.286,4.289,0.447,6.491,0.447h5.019c15.67,0,29.62-7.478,38.491-19.046c8.87,11.568,22.82,19.046,38.491,19.046h5.019    c15.67,0,29.62-7.478,38.491-19.046c8.87,11.568,22.82,19.046,38.491,19.046h5.019c15.67,0,29.62-7.478,38.491-19.046    c8.87,11.568,22.82,19.046,38.491,19.046h5.019c15.67,0,29.62-7.478,38.491-19.046c8.87,11.568,22.82,19.046,38.491,19.046h5.019    c15.67,0,29.62-7.478,38.491-19.046c8.87,11.568,22.82,19.046,38.491,19.046h5.019c2.202,0,4.366-0.161,6.491-0.447V275.99z     M491.999,189.768c0.001,15.71-12.78,28.491-28.49,28.491h-5.019c-15.71,0-28.491-12.781-28.491-28.491v-25.716h62V189.768z" fill="#ddebe9"/><path d="M207.07,386.92c-1.86-1.86-4.44-2.93-7.07-2.93s-5.21,1.07-7.07,2.93s-2.93,4.44-2.93,7.07s1.07,5.21,2.93,7.07    s4.44,2.93,7.07,2.93s5.21-1.07,7.07-2.93s2.93-4.44,2.93-7.07S208.93,388.78,207.07,386.92z" fill="#ddebe9"/><path d="M306.425,11.565c-15.409-15.408-40.481-15.409-55.89,0l-44.959,44.959C198.111,63.988,194,73.913,194,84.469    c0,10.556,4.111,20.481,11.575,27.945c7.705,7.705,17.825,11.557,27.946,11.557c10.12,0,20.24-3.853,27.945-11.557l22.472-22.473    c0.002-0.002,0.005-0.004,0.008-0.007s0.004-0.005,0.007-0.008l22.472-22.472C313.889,59.991,318,50.066,318,39.51    C318,28.954,313.889,19.03,306.425,11.565z M247.323,98.272c-7.61,7.612-19.994,7.611-27.605,0    C216.03,94.586,214,89.683,214,84.469c0-5.214,2.03-10.115,5.718-13.802l15.408-15.408l27.605,27.605L247.323,98.272z     M292.282,53.313l-15.408,15.408l-27.605-27.605l15.408-15.409c3.805-3.806,8.804-5.708,13.803-5.708    c4.999,0,9.997,1.903,13.802,5.708C295.97,29.394,298,34.296,298,39.51S295.97,49.626,292.282,53.313z" fill="#ddebe9"/><path d="M427.467,347.915h-26.574v-26.574c0-5.523-4.477-10-10-10s-10,4.477-10,10v26.574h-26.574c-5.523,0-10,4.477-10,10    s4.477,10,10,10h26.574v26.574c0,5.523,4.477,10,10,10s10-4.477,10-10v-26.574h26.574c5.523,0,10-4.477,10-10    S432.99,347.915,427.467,347.915z" fill="#ddebe9"/><path d="M134,323.323c-5.523,0-10,4.477-10,10v83.333c0,5.523,4.477,10,10,10s10-4.477,10-10v-83.333    C144,327.8,139.523,323.323,134,323.323z" fill="#ddebe9"/><path d="M141.07,447.58c-1.86-1.86-4.44-2.92-7.07-2.92s-5.21,1.06-7.07,2.92c-1.86,1.87-2.93,4.44-2.93,7.08    c0,2.63,1.07,5.21,2.93,7.07c1.86,1.86,4.44,2.93,7.07,2.93s5.21-1.07,7.07-2.93c1.86-1.87,2.93-4.44,2.93-7.07    C144,452.02,142.93,449.45,141.07,447.58z" fill="#ddebe9"/></g><g transform="matrix(0.08355797827243805 0 0 0.08355797827243805 24.609188425563275 287.60915756225586)" id="L1_39"><path d="M171.14,454.87c-1.86-1.87-4.43-2.931-7.07-2.931c-2.63,0-5.2,1.061-7.07,2.931c-1.86,1.859-2.92,4.439-2.92,7.069    s1.06,5.21,2.92,7.07s4.44,2.93,7.07,2.93c2.64,0,5.21-1.069,7.07-2.93c1.87-1.86,2.94-4.44,2.94-7.07    C174.08,459.299,173.01,456.729,171.14,454.87z" fill="#ddebe9"/><path d="M505.719,479.162l-44.831-152.755c-3.18-10.838-13.29-18.407-24.585-18.407h-21.97c-5.523,0-10,4.478-10,10    c0,5.522,4.477,10,10,10h21.97c2.479,0,4.697,1.661,5.395,4.039l44.831,152.756c0.689,2.35-0.264,4.111-0.894,4.952    c-0.63,0.842-2.052,2.253-4.5,2.253H30.866c-2.448,0-3.871-1.411-4.5-2.253c-0.63-0.841-1.583-2.603-0.894-4.952l3.773-12.857    h92.905c5.523,0,10-4.478,10-10c0-5.522-4.477-10-10-10H35.114l35.188-119.899C71,329.661,73.218,328,75.696,328h21.97    c5.523,0,10-4.478,10-10c0-5.522-4.477-10-10-10h-21.97c-11.295,0-21.405,7.569-24.585,18.406L6.281,479.162    c-2.295,7.82-0.81,16.048,4.074,22.572C15.24,508.258,22.716,512,30.866,512h450.269c8.15,0,15.626-3.742,20.511-10.266    C506.529,495.21,508.015,486.982,505.719,479.162z" fill="#ddebe9"/><path d="M256,0C155.567,0,73.859,81.708,73.859,182.141c0,41.649,14.417,82.344,40.61,114.643c0.046,0.06,0.092,0.12,0.138,0.18    l133.509,171.125c1.895,2.429,4.803,3.849,7.883,3.849H256c3.08,0,5.988-1.419,7.883-3.847l132.873-170.229    c0.208-0.267,0.401-0.542,0.579-0.824c26.325-32.352,40.806-73.099,40.806-114.897C438.141,81.708,356.433,0,256,0z     M381.063,285.34c-0.33,0.399-0.625,0.818-0.884,1.255L256.002,445.683L130.646,285.007c-0.124-0.174-0.255-0.345-0.391-0.512    c-23.47-28.797-36.395-65.146-36.395-102.354C93.859,92.736,166.595,20,256,20s162.141,72.736,162.141,162.141    C418.141,219.749,404.974,256.4,381.063,285.34z" fill="#ddebe9"/><path d="M256,60.141c-67.271,0-122,54.729-122,122s54.729,122,122,122s122-54.729,122-122S323.271,60.141,256,60.141z     M256,284.141c-56.243,0-102-45.757-102-102s45.757-102,102-102c56.243,0,102,45.757,102,102S312.243,284.141,256,284.141z" fill="#ddebe9"/><path d="M313.095,125.046c-17.179-17.179-45.132-17.181-62.313,0l-51.876,51.876C190.583,185.245,186,196.31,186,208.079    s4.583,22.834,12.905,31.156c8.591,8.591,19.872,12.886,31.157,12.885c11.282-0.001,22.567-4.296,31.157-12.885l51.875-51.876    c8.323-8.322,12.906-19.387,12.906-31.157C326,144.432,321.417,133.368,313.095,125.046z M247.077,225.092    c-9.383,9.382-24.647,9.382-34.029,0c-4.544-4.545-7.047-10.587-7.047-17.014c-0.001-6.427,2.502-12.469,7.047-17.014    l18.867-18.867l34.028,34.029L247.077,225.092z M298.951,173.217l-18.867,18.867l-34.028-34.029l18.867-18.867    c4.692-4.691,10.853-7.036,17.015-7.036c6.161,0,12.324,2.346,17.014,7.036c4.544,4.545,7.047,10.587,7.047,17.014    C305.999,162.63,303.496,168.672,298.951,173.217z" fill="#ddebe9"/></g></defs><g fi:class="KUsePattern"><pattern id="pattern_L1_29" width="350" height="350" patternUnits="userSpaceOnUse"><use xlink:href="#L1_29" x="-350" y="-350"/><use xlink:href="#L1_29" x="0" y="-350"/><use xlink:href="#L1_29" x="350" y="-350"/><use xlink:href="#L1_29" x="-350" y="0"/><use xlink:href="#L1_29" x="0" y="0"/><use xlink:href="#L1_29" x="350" y="0"/><use xlink:href="#L1_29" x="-350" y="350"/><use xlink:href="#L1_29" x="0" y="350"/><use xlink:href="#L1_29" x="350" y="350"/></pattern><rect x="0" y="0" width="100%" height="100%" fill="url(#pattern_L1_29)"/></g><g fi:class="KUsePattern"><pattern id="pattern_L1_30" width="350" height="350" patternUnits="userSpaceOnUse"><use xlink:href="#L1_30" x="-350" y="-350"/><use xlink:href="#L1_30" x="0" y="-350"/><use xlink:href="#L1_30" x="350" y="-350"/><use xlink:href="#L1_30" x="-350" y="0"/><use xlink:href="#L1_30" x="0" y="0"/><use xlink:href="#L1_30" x="350" y="0"/><use xlink:href="#L1_30" x="-350" y="350"/><use xlink:href="#L1_30" x="0" y="350"/><use xlink:href="#L1_30" x="350" y="350"/></pattern><rect x="0" y="0" width="100%" height="100%" fill="url(#pattern_L1_30)"/></g><g fi:class="KUsePattern"><pattern id="pattern_L1_36" width="350" height="350" patternUnits="userSpaceOnUse"><use xlink:href="#L1_36" x="-350" y="-350"/><use xlink:href="#L1_36" x="0" y="-350"/><use xlink:href="#L1_36" x="350" y="-350"/><use xlink:href="#L1_36" x="-350" y="0"/><use xlink:href="#L1_36" x="0" y="0"/><use xlink:href="#L1_36" x="350" y="0"/><use xlink:href="#L1_36" x="-350" y="350"/><use xlink:href="#L1_36" x="0" y="350"/><use xlink:href="#L1_36" x="350" y="350"/></pattern><rect x="0" y="0" width="100%" height="100%" fill="url(#pattern_L1_36)"/></g><g fi:class="KUsePattern"><pattern id="pattern_L1_37" width="350" height="350" patternUnits="userSpaceOnUse"><use xlink:href="#L1_37" x="-350" y="-350"/><use xlink:href="#L1_37" x="0" y="-350"/><use xlink:href="#L1_37" x="350" y="-350"/><use xlink:href="#L1_37" x="-350" y="0"/><use xlink:href="#L1_37" x="0" y="0"/><use xlink:href="#L1_37" x="350" y="0"/><use xlink:href="#L1_37" x="-350" y="350"/><use xlink:href="#L1_37" x="0" y="350"/><use xlink:href="#L1_37" x="350" y="350"/></pattern><rect x="0" y="0" width="100%" height="100%" fill="url(#pattern_L1_37)"/></g><g fi:class="KUsePattern"><pattern id="pattern_L1_38" width="350" height="350" patternUnits="userSpaceOnUse"><use xlink:href="#L1_38" x="-350" y="-350"/><use xlink:href="#L1_38" x="0" y="-350"/><use xlink:href="#L1_38" x="350" y="-350"/><use xlink:href="#L1_38" x="-350" y="0"/><use xlink:href="#L1_38" x="0" y="0"/><use xlink:href="#L1_38" x="350" y="0"/><use xlink:href="#L1_38" x="-350" y="350"/><use xlink:href="#L1_38" x="0" y="350"/><use xlink:href="#L1_38" x="350" y="350"/></pattern><rect x="0" y="0" width="100%" height="100%" fill="url(#pattern_L1_38)"/></g><g fi:class="KUsePattern"><pattern id="pattern_L1_39" width="350" height="350" patternUnits="userSpaceOnUse"><use xlink:href="#L1_39" x="-350" y="-350"/><use xlink:href="#L1_39" x="0" y="-350"/><use xlink:href="#L1_39" x="350" y="-350"/><use xlink:href="#L1_39" x="-350" y="0"/><use xlink:href="#L1_39" x="0" y="0"/><use xlink:href="#L1_39" x="350" y="0"/><use xlink:href="#L1_39" x="-350" y="350"/><use xlink:href="#L1_39" x="0" y="350"/><use xlink:href="#L1_39" x="350" y="350"/></pattern><rect x="0" y="0" width="100%" height="100%" fill="url(#pattern_L1_39)"/></g></svg>