<svg xmlns="http://www.w3.org/2000/svg" width="56" height="56" viewBox="0 0 56 56">
    <!-- <g id="search-computer-drug-pharmacy-monitor"> -->
        <path fill="#00000000" d="M0 0h56v56H0z"/>
        <path d="M33.187 3.438l7.493 12.978h7.987v4.667h-2.723l-1.767 21.193a2.333 2.333 0 0 1-2.324 2.14H8.813a2.333 2.333 0 0 1-2.324-2.14L4.721 21.083H2v-4.667h7.985l7.494-12.978 4.041 2.333-6.145 10.645H35.29L29.146 5.771zm-5.52 22.311H23v9.333h4.667zm-9.333 0h-4.667v9.333h4.667zm18.667 0h-4.668v9.333H37z" transform="translate(2.667 4.584)"/>
    <!-- </g> -->
</svg>
