<svg height="512" viewBox="0 0 64 64" width="512" xmlns="http://www.w3.org/2000/svg"><g id="medicine-Chemist-pharmacy-store-shop"><path d="m4 15h56v46h-56z" fill="#00ddc2"/><path d="m24 29h32v28h-32z" fill="#57a4ff"/><path d="m60 4v3h-56v-3a1 1 0 0 1 1-1h54a1 1 0 0 1 1 1z" fill="#ffda44"/><path d="m3 7h58v8h-58z" fill="#ff7956"/><path d="m8 36h12v3h-12z" fill="#acabb1"/><path d="m8 33h12v3h-12z" fill="#e0e0e2"/><path d="m8 39h12v22h-12z" fill="#c6c5ca"/><path d="m52 16h-48v6a4 4 0 0 0 8 0 4 4 0 0 0 8 0 4 4 0 0 0 8 0 4 4 0 0 0 8 0 4 4 0 0 0 8 0 4 4 0 0 0 8 0 4 4 0 0 0 8 0v-6z" fill="#2d2d30"/><path d="m20 15v6a4 4 0 0 1 -8 0v-6z" fill="#ffda44"/><path d="m36 15v6a4 4 0 0 1 -8 0v-6z" fill="#ffda44"/><path d="m52 15v6a4 4 0 0 1 -8 0v-6z" fill="#ffda44"/><g fill="#ff9478"><path d="m60 15v6a4 4 0 0 1 -8 0v-6z"/><path d="m44 15v6a4 4 0 0 1 -8 0v-6z"/><path d="m28 15v6a4 4 0 0 1 -8 0v-6z"/><path d="m12 15v6a4 4 0 0 1 -8 0v-6z"/></g><path d="m33 29-9 8v5l14-13z" fill="#81bbff"/><path d="m44.882 29-20.882 19.094v6.906l28-26z" fill="#81bbff"/><rect fill="#ff9f85" height="3" rx="1.5" width="11" x="5" y="9"/><path d="m9 36h-1l2-3h1z" fill="#fff"/><path d="m12 36h-1l2-3h1z" fill="#fff"/><path d="m43 43h10a0 0 0 0 1 0 0v6a5 5 0 0 1 -5 5 5 5 0 0 1 -5-5v-6a0 0 0 0 1 0 0z" fill="#d80027"/><path d="m53 37v6h-10v-6a5 5 0 1 1 10 0z" fill="#fff"/><circle cx="36" cy="45" fill="#ffda44" r="9"/><path d="m43.62 40.21-12.41 12.41a9.1 9.1 0 0 1 -2.83-2.83l12.41-12.41a8.836 8.836 0 0 1 2.21 1.97 8.954 8.954 0 0 1 .62.86z" fill="#ff9811"/><path d="m10 47h2v4h-2z"/><path d="m62 15v-8a1 1 0 0 0 -1-1v-2a2.006 2.006 0 0 0 -2-2h-54a2.006 2.006 0 0 0 -2 2v2a1 1 0 0 0 -1 1v8a1 1 0 0 0 1 1v44h-1v2h60v-2h-1v-44a1 1 0 0 0 1-1zm-57-11h54v2h-54zm14 56h-10v-20h10zm0-22h-10v-1h10zm0-3h-10v-1h10zm40 25h-38v-27a1 1 0 0 0 -1-1h-12a1 1 0 0 0 -1 1v27h-2v-35.03a4.924 4.924 0 0 0 3 1.03 4.994 4.994 0 0 0 4-2.03 4.956 4.956 0 0 0 8 0 4.956 4.956 0 0 0 8 0 4.956 4.956 0 0 0 8 0 4.956 4.956 0 0 0 8 0 4.956 4.956 0 0 0 8 0 4.994 4.994 0 0 0 4 2.03 4.924 4.924 0 0 0 3-1.03zm-54-39v-5h6v5a3 3 0 0 1 -6 0zm8 0v-5h6v5a3 3 0 0 1 -6 0zm8 0v-5h6v5a3 3 0 0 1 -6 0zm8 0v-5h6v5a3 3 0 0 1 -6 0zm8 0v-5h6v5a3 3 0 0 1 -6 0zm8 0v-5h6v5a3 3 0 0 1 -6 0zm14 0a3 3 0 0 1 -6 0v-5h6zm1-7h-56v-6h56z"/><path d="m56 28h-32a1 1 0 0 0 -1 1v28a1 1 0 0 0 1 1h32a1 1 0 0 0 1-1v-28a1 1 0 0 0 -1-1zm-1 28h-30v-26h30z"/><path d="m49 37v2h2v-2a3 3 0 0 0 -3-3v2a1 1 0 0 1 1 1z"/><path d="m52.24 32.75a6 6 0 0 0 -10.24 4.25v.02a10 10 0 1 0 .93 15.17 6.062 6.062 0 0 0 .83 1.06 6 6 0 0 0 10.24-4.25v-12a5.986 5.986 0 0 0 -1.76-4.25zm-23.61 15.37a8.007 8.007 0 0 1 7.37-11.12 7.91 7.91 0 0 1 3.12.64zm1.06 1.78 11.21-11.21a7.842 7.842 0 0 1 1.41 1.41l-11.21 11.21a7.842 7.842 0 0 1 -1.41-1.41zm6.31 3.1a7.91 7.91 0 0 1 -3.12-.64l10.49-10.48a8.007 8.007 0 0 1 -7.37 11.12zm16-4a4.009 4.009 0 0 1 -6.83 2.84 4.478 4.478 0 0 1 -.86-1.29 9.907 9.907 0 0 0 1.69-5.55c0-.34-.02-.67-.05-1h6.05zm0-7h-6.46a9.878 9.878 0 0 0 -1.54-2.97v-2.03a4.009 4.009 0 0 1 6.83-2.84 4.045 4.045 0 0 1 1.17 2.84z"/></g></svg>