<svg id="Capa_1" enable-background="new 0 0 512 512" height="512" viewBox="0 0 512 512" width="512" xmlns="http://www.w3.org/2000/svg"><g><path d="m428.61 470.31c0 23.02-77.28 41.69-172.61 41.69s-172.61-18.67-172.61-41.69c0-19.2 53.72-35.37 126.83-40.21h91.56c73.11 4.84 126.83 21.01 126.83 40.21z" fill="#2a4979"/><path d="m428.61 470.31c0 23.02-77.28 41.69-172.61 41.69v-81.9h45.78c73.11 4.84 126.83 21.01 126.83 40.21z" fill="#202a58"/><path d="m445.61 189.61c0 135.74-189.61 279.69-189.61 279.69s-189.61-143.95-189.61-279.69c0-104.72 84.89-189.61 189.61-189.61s189.61 84.89 189.61 189.61z" fill="#fd6b53"/><path d="m445.61 189.61c0 135.74-189.61 279.69-189.61 279.69v-469.3c104.72 0 189.61 84.89 189.61 189.61z" fill="#e43135"/><ellipse cx="256" cy="189.61" fill="#f0f7ff" rx="118.09" ry="118.09" transform="matrix(.707 -.707 .707 .707 -59.094 236.555)"/><path d="m374.09 189.61c0 65.22-52.87 118.09-118.09 118.09v-236.18c65.22 0 118.09 52.87 118.09 118.09z" fill="#dfe7f4"/><path d="m305.25 174.61v30h-34.25v34.25h-30v-34.25h-34.25v-30h34.25v-34.26h30v34.26z" fill="#fd6b53"/><path d="m305.25 174.61v30h-34.25v34.25h-15v-98.51h15v34.26z" fill="#e43135"/></g></svg>