<svg id="Layer_1" enable-background="new 0 0 509.993 509.993" height="512" viewBox="0 0 509.993 509.993" width="512" xmlns="http://www.w3.org/2000/svg"><g><path id="XMLID_4719_" d="m224.997 359.997c-2.26.432-42.84 4.971-66.754 10.92-23.91 5.949-53.896 16.648-70.654 34.732-9.931 10.717-12.592 21.2-12.592 29.351 0 28.929 31.488 49.913 76.025 62.205 30.511 8.421 67.145 12.765 103.975 12.788l15-73.643-15-22.351z" fill="#a7cafc"/><path id="XMLID_8_" d="m74.997 180c0-99.409 80.586-180 180-180v414c-9.623-8.768-180-106.503-180-234z" fill="#dd4e4e"/><path id="XMLID_4718_" d="m376.795 491.523c17.018-6.189 29.277-13.054 38.018-20.056 15.967-12.792 20.184-26.043 20.184-36.468 0-8.151-2.661-18.634-12.593-29.351-16.752-18.078-46.745-28.789-70.651-34.741-23.986-5.973-44.118-7.79-46.273-8.201h-25.241l-25.242 51.294v95.993c39.736.028 84.919-5.058 121.798-18.47z" fill="#8493fb"/><path id="XMLID_4716_" d="m434.997 180c0-99.409-80.586-180-180-180v414c9.623-8.768 180-106.503 180-234z" fill="#c21456"/><g><path id="XMLID_4715_" d="m164.883 270.111c23.087 23.087 54.962 37.386 90.114 37.386l15-127.5-15-127.5c-35.152 0-67.027 14.3-90.114 37.386-49.838 49.839-49.87 130.359 0 180.228z" fill="#e2dff4"/><path id="XMLID_4692_" d="m382.497 179.997c0-70.302-57.194-127.5-127.5-127.5v255c70.301 0 127.5-57.194 127.5-127.5z" fill="#bebcdd"/><path id="XMLID_4669_" d="m157.497 179.997c0 26.881 10.935 51.256 28.589 68.911l83.911-68.911-15-97.5c-53.761 0-97.5 43.737-97.5 97.5z" fill="#f9f9f9"/><path id="XMLID_4664_" d="m323.907 111.086c-17.654-17.654-42.029-28.589-68.91-28.589v97.5l68.91 68.911c38.112-38.111 38.136-99.685 0-137.822z" fill="#e2dff4"/><path id="XMLID_4661_" d="m185.792 248.607c18.273 18.43 42.996 28.891 69.205 28.891l15-37.5-15-37.5c-30.694-.001-57.7 18.65-69.205 46.109z" fill="#bfe85f"/><path id="XMLID_4660_" d="m254.997 202.497v75c26.162 0 50.899-10.428 69.205-28.891-11.488-27.414-38.465-46.109-69.205-46.109z" fill="#00cb76"/><path id="XMLID_4658_" d="m202.497 179.997c0 28.948 23.55 52.5 52.5 52.5l15-52.5-15-52.5c-28.948 0-52.5 23.551-52.5 52.5z" fill="#edbba7"/><path id="XMLID_4652_" d="m307.497 179.997c0-28.947-23.551-52.5-52.5-52.5v105c28.947 0 52.5-23.55 52.5-52.5z" fill="#e8a38b"/></g></g></svg>