<svg height="512" viewBox="0 0 64 64" width="512" xmlns="http://www.w3.org/2000/svg"><g id="search-computer-drug-pharmacy-monitor"><path d="m36 39a1 1 0 0 1 1-1h1v-2.28a16.816 16.816 0 0 1 -8-3.79 13 13 0 1 1 -5.05-18.49 17.021 17.021 0 0 1 1.65-3.44h-21.6a1 1 0 0 0 -1 1v29h32z"/><path d="m19 14a11 11 0 1 0 9.51 16.49 17.038 17.038 0 0 1 -3.52-5.82l-6.69 6.7a4.006 4.006 0 0 1 -5.67-5.66l7.07-7.08a4.019 4.019 0 0 1 4.36-.86 16.356 16.356 0 0 1 .33-2.36 10.948 10.948 0 0 0 -5.39-1.41z"/><path d="m36 42h-32v5a1 1 0 0 0 1 1h31z"/><path d="m28 50h8v6h-8z"/><path d="m14.05 27.12a2.006 2.006 0 0 0 -.59 1.42 1.983 1.983 0 0 0 .59 1.41 2.016 2.016 0 0 0 2.84 0l2.82-2.83-2.83-2.83z"/><path d="m23.95 22.88a1.738 1.738 0 0 0 .38-.56 16.911 16.911 0 0 1 -.27-2.14 1.267 1.267 0 0 0 -.11-.13 2.016 2.016 0 0 0 -2.84 0l-2.82 2.83 2.83 2.83z"/><path d="m41 34a15 15 0 1 0 -15-15 15.018 15.018 0 0 0 15 15zm0-28a13 13 0 1 1 -13 13 13.015 13.015 0 0 1 13-13z"/><path d="m41 30a11 11 0 1 0 -11-11 11.013 11.013 0 0 0 11 11zm0-20v2a7.008 7.008 0 0 0 -7 7h-2a9.011 9.011 0 0 1 9-9z"/><path d="m40 35.95v2.05h2v-2.05c-.33.02-.66.05-1 .05s-.67-.03-1-.05z"/><path d="m20 58a1 1 0 0 0 -1 1v1h18.03a4.84 4.84 0 0 1 -.93-2z"/><path d="m46 48h13a1 1 0 0 0 1-1v-5h-14zm10-4h2v2h-2zm-4 0h2v2h-2z"/><path d="m59 10h-3.6a16.957 16.957 0 0 1 -11.4 25.72v2.28h1a1 1 0 0 1 1 1v1h14v-29a1 1 0 0 0 -1-1z"/><path d="m38 57a3 3 0 0 0 6 0v-17h-6zm2-15h2v2h-2zm0 4h2v12h-2z"/></g></svg>