<?xml version="1.0" standalone="no"?><svg xmlns="http://www.w3.org/2000/svg" viewBox="0 0 1440 320"><path fill="#1e88e5" fill-opacity="1" d="M0,160L17.1,149.3C34.3,139,69,117,103,128C137.1,139,171,181,206,181.3C240,181,274,139,309,117.3C342.9,96,377,96,411,90.7C445.7,85,480,75,514,85.3C548.6,96,583,128,617,117.3C651.4,107,686,53,720,42.7C754.3,32,789,64,823,85.3C857.1,107,891,117,926,138.7C960,160,994,192,1029,176C1062.9,160,1097,96,1131,106.7C1165.7,117,1200,203,1234,213.3C1268.6,224,1303,160,1337,138.7C1371.4,117,1406,139,1423,149.3L1440,160L1440,0L1422.9,0C1405.7,0,1371,0,1337,0C1302.9,0,1269,0,1234,0C1200,0,1166,0,1131,0C1097.1,0,1063,0,1029,0C994.3,0,960,0,926,0C891.4,0,857,0,823,0C788.6,0,754,0,720,0C685.7,0,651,0,617,0C582.9,0,549,0,514,0C480,0,446,0,411,0C377.1,0,343,0,309,0C274.3,0,240,0,206,0C171.4,0,137,0,103,0C68.6,0,34,0,17,0L0,0Z"></path></svg>